<?xml version="1.0" encoding="UTF-8" standalone="no"?>
<svg
   xmlns:dc="http://purl.org/dc/elements/1.1/"
   xmlns:cc="http://creativecommons.org/ns#"
   xmlns:rdf="http://www.w3.org/1999/02/22-rdf-syntax-ns#"
   xmlns:svg="http://www.w3.org/2000/svg"
   xmlns="http://www.w3.org/2000/svg"
   xmlns:sodipodi="http://sodipodi.sourceforge.net/DTD/sodipodi-0.dtd"
   xmlns:inkscape="http://www.inkscape.org/namespaces/inkscape"
   width="80"
   height="60"
   version="1.1"
   id="svg3803"
   sodipodi:docname="upload.svg"
   inkscape:version="0.92.4 5da689c313, 2019-01-14">
  <metadata
     id="metadata3809">
    <rdf:RDF>
      <cc:Work
         rdf:about="">
        <dc:format>image/svg+xml</dc:format>
        <dc:type
           rdf:resource="http://purl.org/dc/dcmitype/StillImage" />
        <dc:title></dc:title>
      </cc:Work>
    </rdf:RDF>
  </metadata>
  <defs
     id="defs3807" />
  <sodipodi:namedview
     pagecolor="#ffffff"
     bordercolor="#666666"
     borderopacity="1"
     objecttolerance="10"
     gridtolerance="10"
     guidetolerance="10"
     inkscape:pageopacity="0"
     inkscape:pageshadow="2"
     inkscape:window-width="3744"
     inkscape:window-height="2048"
     id="namedview3805"
     showgrid="false"
     inkscape:zoom="27.53125"
     inkscape:cx="39.84563"
     inkscape:cy="29.094211"
     inkscape:window-x="96"
     inkscape:window-y="56"
     inkscape:window-maximized="1"
     inkscape:current-layer="svg3803" />
  <g
     id="g3835"
     transform="translate(6,-1.5)">
    <circle
       id="circle3795"
       r="15"
       cy="44"
       cx="49"
       style="opacity:0.2;fill-rule:evenodd" />
    <g
       id="g3821">
      <path
         style="fill:#ff766a"
         d="M 7.0001899,4.0001876 C 5.3381955,4.0001876 4.0002,5.3381831 4.0002,7.000178 V 40.000067 H 60.000012 V 7.000178 c 0,-1.6619949 -1.337995,-2.9999904 -2.99999,-2.9999904 z M 59.188015,51.00003 c -0.505998,0.505998 -1.223996,0.809997 -1.999993,0.811997 l -50.1878321,0.188 H 57.000022 c 0.879998,0 1.639995,-0.399999 2.187993,-0.999997 z"
         id="path3781"
         inkscape:connector-curvature="0" />
      <path
         style="opacity:0.2;fill:#ffffff"
         d="M 7,4 C 5.3380056,4 4,5.3380051 4,7 V 8 C 4,6.338005 5.3380056,5 7,5 h 50 c 1.661995,0 3,1.338005 3,3 V 7 C 60,5.3380051 58.661995,4 57,4 Z"
         id="path3783"
         inkscape:connector-curvature="0" />
      <path
         style="opacity:0.2;fill-rule:evenodd"
         d="m 44.000066,15.000053 c 4.418185,0 7.999973,3.581788 7.999973,7.999974 0,4.418185 -3.581788,7.999973 -7.999973,7.999973 -4.418185,0 -7.999973,-3.581788 -7.999973,-7.999973 0,-4.418186 3.581788,-7.999974 7.999973,-7.999974 z"
         id="path3785"
         inkscape:connector-curvature="0" />
      <path
         style="fill:#fffee4;fill-rule:evenodd"
         d="m 44.000066,14.000053 c 4.418185,0 7.999973,3.581788 7.999973,7.999973 0,4.418185 -3.581788,7.999974 -7.999973,7.999974 -4.418185,0 -7.999973,-3.581789 -7.999973,-7.999974 0,-4.418185 3.581788,-7.999973 7.999973,-7.999973 z"
         id="path3787"
         inkscape:connector-curvature="0" />
      <path
         style="fill:#d22f7a"
         d="m 4.0004,40.000067 v 8.99997 c 0,0 0,3.01199 2.9999899,2.99999 l 50.1998321,-0.2 c 1.551195,-0.006 2.79999,-1.248795 2.79999,-2.79999 v -8.99997 z"
         id="path3789"
         inkscape:connector-curvature="0" />
      <path
         d="m 4.0004,40.000067 v -1.599995 c 0,0 4.0383865,-2.666591 5.1735827,-2.89919 1.1353563,-0.232639 2.4761913,-0.0434 3.8541873,0.216799 1.377975,0.259199 3.435188,0.609758 4.077186,0.631678 0.642078,0.0224 1.803954,-0.056 3.15399,-0.137599 1.349995,-0.08 3.585188,-0.1536 4.282385,-0.1456 0.697218,0 2.437792,0.096 4.292986,0.209259 1.855334,0.1136 4.403585,0.303379 4.981783,0.356479 0.578198,0.0528 1.257816,0.1504 2.029193,0.256819 0.771258,0.1056 2.106593,0.2651 2.578792,0.308959 0.472338,0.043 1.567434,0.1938 2.83799,0.310719 1.270596,0.1168 3.303989,0.1568 3.891187,0.1136 0.587218,-0.0434 1.818054,-0.478078 3.189789,-0.878877 1.371636,-0.400639 2.884191,-0.767518 4.034587,-0.676798 1.150456,0.091 7.622174,2.333592 7.622174,2.333592 v 1.599995 H 10.800377 Z"
         id="path3791"
         inkscape:connector-curvature="0" />
      <path
         style="opacity:0.2"
         d="m 4,49.000001 v 1 c 0,0 1.01e-5,3.012 3,3 L 57.201172,52.800782 C 58.751167,52.794782 60,51.551996 60,50.000001 v -0.998047 c 0,1.551995 -1.248833,2.792828 -2.798828,2.798828 L 7,52.000001 H 7.5175781 L 57.1875,51.812501 c 0.775597,-0.003 1.493902,-0.307161 2,-0.8125 -0.547898,0.599558 -1.307622,1 -2.1875,1 H 7.5175781 L 7,52.001954 v -0.002 c -2.9999899,0.012 -3,-3 -3,-3 z m 3,4 h 50 c 0.879878,0 1.639602,-0.400442 2.1875,-1 -0.506098,0.505339 -1.224403,0.8095 -2,0.8125 z"
         id="path3793"
         inkscape:connector-curvature="0" />
      <circle
         style="fill:#7bbe4d;fill-rule:evenodd"
         cx="49"
         cy="43"
         r="15"
         id="circle3797" />
      <rect
         style="fill:#ffffff"
         width="6"
         height="14"
         x="46"
         y="38"
         rx="0.88800001"
         ry="0.90600002"
         id="rect3799" />
      <path
         style="fill:#ffffff"
         d="m 49.000073,34.000037 3.50001,5.000017 3.500009,5.000016 h -7.000019 l -7.000019,-10e-7 3.50001,-5.000016 z"
         id="path3801"
         inkscape:connector-curvature="0" />
    </g>
  </g>
</svg>
